<svg width="80" height="79" viewBox="0 0 80 79" fill="none" xmlns="http://www.w3.org/2000/svg">
<path d="M46.9938 4.48077C46.0212 3.46842 44.7259 2.827 43.3312 2.66703C41.9365 2.50705 40.5296 2.83853 39.353 3.60436C38.1301 2.7382 36.6283 2.35906 35.1408 2.54101C33.6533 2.72297 32.2871 3.45295 31.309 4.58835C30.331 5.72375 29.8114 7.18299 29.8517 8.68102C29.892 10.179 30.4894 11.6082 31.5271 12.6894L37.6163 19.0291C37.8005 19.2211 38.0208 19.3749 38.2646 19.4818C38.5083 19.5886 38.7707 19.6464 39.0367 19.6517C39.3028 19.6571 39.5673 19.61 39.8152 19.5132C40.063 19.4163 40.2894 19.2715 40.4813 19.0871L46.821 12.998C47.3919 12.4502 47.8492 11.7954 48.1669 11.0708C48.4846 10.3462 48.6564 9.56616 48.6724 8.77517C48.6885 7.98419 48.5485 7.19779 48.2605 6.46093C47.9724 5.72407 47.542 5.0512 46.9938 4.48077V4.48077ZM45.1052 11.2205L39.0815 16.9973L33.3046 10.9736C32.9812 10.6364 32.7274 10.2388 32.5576 9.80359C32.3879 9.36833 32.3056 8.9039 32.3153 8.43681C32.335 7.49349 32.7286 6.59662 33.4095 5.9435C34.0905 5.29039 35.003 4.93452 35.9463 4.9542C36.8896 4.97388 37.7865 5.36748 38.4396 6.04843L39.2913 6.93718L40.1801 6.08546C40.8643 5.44179 41.7712 5.08791 42.7105 5.09796C43.1775 5.10441 43.6384 5.20378 44.0665 5.39028C44.4946 5.57678 44.8813 5.84667 45.204 6.18421H45.2163C45.8661 6.86957 46.2208 7.78273 46.2038 8.72702C46.1939 9.19449 46.0917 9.6554 45.9032 10.0833C45.7146 10.5112 45.4435 10.8976 45.1052 11.2205V11.2205ZM66.2994 52.5844C65.0321 49.8516 63.0909 47.4857 60.6583 45.7089C58.7821 44.3387 56.9058 42.8698 55.0913 41.4503C53.7952 40.4505 52.4991 39.4383 51.1907 38.4508C49.8329 37.4262 48.4751 36.3894 47.1173 35.3401L54.3137 26.9711C54.522 26.7191 54.6239 26.3959 54.5976 26.07C54.5736 25.7459 54.4228 25.4442 54.1779 25.2306L53.4619 24.6134C51.857 23.237 49.7715 22.5536 47.6632 22.7133C45.5549 22.873 43.5961 23.8627 42.2168 25.4651L39.0815 29.1189C38.6124 28.7486 38.131 28.3783 37.6619 28.008C35.9708 26.6872 34.2798 25.354 32.5516 24.0209C32.0317 23.5939 31.4326 23.2737 30.7886 23.0788C30.1447 22.884 29.4686 22.8182 28.7991 22.8853C27.4519 23.0254 26.2142 23.6911 25.3546 24.7379C24.4949 25.7847 24.0827 27.1282 24.2073 28.477C24.2746 29.1555 24.4762 29.8137 24.8005 30.4135C25.1247 31.0132 25.5651 31.5424 26.0958 31.9703L35.9462 39.3272C35.2502 39.6163 34.6273 40.0565 34.1224 40.616C33.6176 41.1755 33.2435 41.8403 33.0273 42.5622C32.8111 43.2842 32.7581 44.0451 32.8723 44.79C32.9864 45.535 33.2648 46.2452 33.6873 46.8692C32.9533 47.0744 32.2755 47.4432 31.7046 47.9481C31.1337 48.4529 30.6847 49.0805 30.3912 49.7838C30.0978 50.4871 29.9676 51.2478 30.0104 52.0086C30.0532 52.7695 30.2679 53.5107 30.6383 54.1767C29.5502 54.4293 28.5772 55.0374 27.8733 55.9048C27.447 56.4235 27.127 57.0212 26.9316 57.6635C26.7363 58.3059 26.6693 58.9805 26.7347 59.6488C26.8 60.317 26.9963 60.9658 27.3124 61.5582C27.6285 62.1506 28.0582 62.6749 28.5769 63.1012C29.5644 63.9159 30.5396 64.7306 31.5271 65.5576C33.9465 67.5944 36.4523 69.6928 39.0444 71.6061C41.6094 73.6444 44.5743 75.1206 47.7468 75.9387C48.9045 76.2054 50.0891 76.338 51.2771 76.3337C55.1799 76.336 58.9625 74.9835 61.9791 72.5072C63.8365 70.9382 65.3273 68.9812 66.3467 66.7739C67.3661 64.5666 67.8893 62.1627 67.8794 59.7314C67.8829 57.2621 67.3435 54.8221 66.2994 52.5844V52.5844ZM44.093 27.0822C45.0065 26.008 46.2992 25.3276 47.7019 25.1827C49.1045 25.0378 50.509 25.4397 51.6227 26.3045L45.1546 33.8219C43.7721 32.7603 42.4019 31.6987 41.0441 30.6372L44.093 27.0822ZM60.3868 70.6186C58.7218 71.9869 56.7682 72.96 54.673 73.4646C52.5777 73.9691 50.3953 73.9921 48.2899 73.5317C45.4544 72.7873 42.8056 71.4587 40.5133 69.6311C37.9829 67.7548 35.5018 65.6687 33.1071 63.669C32.1196 62.842 31.1321 62.015 30.1446 61.2003C29.8735 60.9805 29.6486 60.7093 29.4827 60.4023C29.3167 60.0952 29.2131 59.7585 29.1777 59.4113C29.1424 59.0641 29.1759 58.7133 29.2766 58.3792C29.3772 58.045 29.5428 57.734 29.764 57.464C29.9851 57.1941 30.2575 56.9705 30.5653 56.8061C30.8732 56.6417 31.2105 56.5398 31.5578 56.5062C31.9052 56.4725 32.2558 56.5079 32.5894 56.6102C32.9231 56.7124 33.2333 56.8796 33.5021 57.1022C33.6276 57.2054 33.7722 57.2828 33.9277 57.33C34.0832 57.3772 34.2465 57.3933 34.4082 57.3772C34.5699 57.3612 34.7269 57.3133 34.87 57.2365C35.0132 57.1596 35.1398 57.0553 35.2426 56.9294C35.4243 56.706 35.5245 56.4273 35.5265 56.1394C35.5253 55.957 35.4837 55.7772 35.4047 55.6129C35.3257 55.4486 35.2114 55.3038 35.0698 55.1889L33.5885 53.9792C33.046 53.5606 32.6751 52.9583 32.5455 52.2854C32.416 51.6126 32.5367 50.9156 32.8849 50.3255C33.0891 50.0161 33.3559 49.753 33.6681 49.5532C33.9804 49.3534 34.331 49.2214 34.6974 49.1655C35.0639 49.1097 35.438 49.1313 35.7955 49.2291C36.153 49.3268 36.4861 49.4985 36.7732 49.733V49.7453C36.8988 49.8482 37.0435 49.9254 37.1989 49.9724C37.3544 50.0195 37.5176 50.0354 37.6792 50.0194C37.8408 50.0033 37.9977 49.9556 38.1409 49.8789C38.2841 49.8022 38.4107 49.6981 38.5137 49.5725C38.6166 49.4469 38.6938 49.3022 38.7408 49.1467C38.7878 48.9913 38.8038 48.8281 38.7877 48.6665C38.7717 48.5048 38.7239 48.348 38.6473 48.2048C38.5706 48.0616 38.4665 47.935 38.3408 47.832L36.3658 46.215C35.8511 45.8157 35.4944 45.2471 35.3588 44.61C35.2233 43.9728 35.3176 43.3083 35.6252 42.734C35.7972 42.4327 36.0273 42.1684 36.3022 41.9566C36.577 41.7448 36.8911 41.5896 37.2264 41.5001C37.5616 41.4105 37.9113 41.3884 38.2552 41.4349C38.599 41.4815 38.9302 41.5958 39.2296 41.7712C39.503 41.9449 39.8336 42.0041 40.1502 41.9362C40.4669 41.8683 40.7441 41.6787 40.9223 41.4083C41.1004 41.1378 41.1651 40.8082 41.1025 40.4905C41.0398 40.1728 40.8549 39.8924 40.5874 39.7098L27.6265 30.02C27.3551 29.8033 27.13 29.5343 26.9647 29.229C26.7993 28.9236 26.6969 28.5882 26.6637 28.2425C26.6015 27.5402 26.8138 26.8412 27.2562 26.2922C27.7036 25.7512 28.3472 25.4094 29.046 25.3417C29.4082 25.3088 29.7733 25.3498 30.1192 25.4623C30.465 25.5747 30.7845 25.7563 31.058 25.9959C32.7615 27.3044 34.4567 28.6251 36.1437 29.9583C36.9213 30.5631 37.7113 31.1803 38.5013 31.7851C40.5133 33.3528 42.546 34.9287 44.5991 36.5128C46.3026 37.8212 48.006 39.1256 49.7094 40.4258C51.0055 41.4009 52.2893 42.4008 53.573 43.4006C55.3999 44.8325 57.3008 46.3014 59.2018 47.6962C61.2954 49.2359 62.9679 51.2777 64.0652 53.6336C65.3994 56.4763 65.7621 59.6788 65.0974 62.7479C64.4328 65.8171 62.7776 68.5826 60.3868 70.6186V70.6186ZM60.3498 4.77702L56.7207 6.99889C56.5274 7.11599 56.3048 7.17591 56.0788 7.17171C55.8673 7.17214 55.6592 7.1192 55.4736 7.01778C55.2881 6.91637 55.1311 6.76977 55.0173 6.59155C54.8474 6.30992 54.7961 5.97239 54.8748 5.65304C54.9535 5.33368 55.1557 5.05858 55.4369 4.88811L59.066 2.66624C59.2036 2.58122 59.3566 2.5243 59.5163 2.49876C59.676 2.47322 59.8392 2.47957 59.9965 2.51745C60.1537 2.55532 60.3019 2.62397 60.4324 2.71942C60.563 2.81487 60.6733 2.93524 60.7571 3.07358C60.8427 3.21202 60.9002 3.36604 60.926 3.52676C60.9519 3.68748 60.9457 3.85173 60.9079 4.01006C60.87 4.16839 60.8012 4.31766 60.7054 4.44929C60.6096 4.58092 60.4888 4.6923 60.3498 4.77702V4.77702ZM22.3187 6.25827C22.2217 6.47165 22.0654 6.65262 21.8685 6.77958C21.6715 6.90653 21.4421 6.9741 21.2077 6.97421C21.0236 6.97463 20.842 6.93238 20.6769 6.85077L16.8257 5.04858C16.5295 4.9094 16.3006 4.65827 16.1895 4.3504C16.0784 4.04254 16.0941 3.70315 16.2332 3.40686C16.3013 3.25952 16.398 3.12716 16.5177 3.01745C16.6374 2.90775 16.7776 2.82288 16.9303 2.76777C17.083 2.71266 17.2451 2.6884 17.4073 2.6964C17.5694 2.7044 17.7284 2.74449 17.8749 2.81436L21.7262 4.61655C22.0224 4.75573 22.2512 5.00686 22.3623 5.31473C22.4734 5.6226 22.4577 5.96199 22.3187 6.25827V6.25827Z" fill="black"/>
</svg>
