<svg width="75" height="75" viewBox="0 0 75 75" fill="none" xmlns="http://www.w3.org/2000/svg">
<path d="M37.6498 58.5531V30.8373M29.5027 58.5531C29.5027 53.1966 26.9041 48.2813 22.7687 44.8773C17.4321 40.4829 14.0708 33.7816 14.2217 26.3062C14.4664 14.1019 24.4081 3.90411 36.6038 3.36903C50.0306 2.7813 61.0836 13.4928 61.0836 26.7872C61.0836 34.0847 57.7493 40.601 52.5209 44.8944C48.3855 48.2913 45.7969 53.2009 45.7969 58.5531H29.5027V58.5531ZM45.7969 65.465H29.5027H45.7969ZM43.843 65.465C43.8555 66.2855 43.7046 67.1004 43.3992 67.8621C43.0938 68.6238 42.6399 69.3171 42.0641 69.9018C41.4882 70.4865 40.8018 70.9507 40.0448 71.2677C39.2879 71.5846 38.4754 71.7478 37.6548 71.7478C36.8341 71.7478 36.0217 71.5846 35.2647 71.2677C34.5077 70.9507 33.8213 70.4865 33.2455 69.9018C32.6696 69.3171 32.2158 68.6238 31.9103 67.8621C31.6049 67.1004 31.4541 66.2855 31.4665 65.465H43.843Z" stroke="black" stroke-width="2" stroke-miterlimit="10" stroke-linecap="round" stroke-linejoin="round"/>
<path d="M42.4883 30.8374H37.6499V25.9989C37.6502 24.8416 38.1102 23.7318 38.9287 22.9136C39.7472 22.0954 40.8571 21.6357 42.0144 21.6357H42.4869C43.6442 21.6357 44.7541 22.0954 45.5726 22.9136C46.3911 23.7318 46.8511 24.8416 46.8515 25.9989V26.4728C46.8515 27.6303 46.3916 28.7405 45.5731 29.559C44.7546 30.3775 43.6445 30.8374 42.4869 30.8374H42.4883ZM32.8114 30.8374H37.6499V25.9989C37.6495 24.8416 37.1895 23.7318 36.371 22.9136C35.5525 22.0954 34.4426 21.6357 33.2853 21.6357H32.8128C31.6555 21.6357 30.5456 22.0954 29.7271 22.9136C28.9086 23.7318 28.4486 24.8416 28.4482 25.9989V26.4728C28.4482 27.6303 28.9081 28.7405 29.7266 29.559C30.5451 30.3775 31.6553 30.8374 32.8128 30.8374H32.8114Z" stroke="black" stroke-width="2" stroke-miterlimit="10" stroke-linecap="round" stroke-linejoin="round"/>
</svg>
