<svg width="69" height="75" viewBox="0 0 69 75" fill="none" xmlns="http://www.w3.org/2000/svg">
<path d="M68.5209 17.7913C68.3024 24.5657 67.4283 41.174 64.3688 50.1338C60.8723 59.9677 51.694 67.6163 35.9598 74.1722C35.0857 74.6093 34.2116 74.6093 33.3375 74.1722C17.6032 67.6163 8.42495 59.9677 4.92845 50.1338C1.86902 41.3926 0.994898 24.5657 0.776367 17.7913C0.776367 16.9171 1.21343 16.043 1.86902 15.3874C2.52461 14.7318 3.39874 14.5133 4.27286 14.5133C15.1994 15.3874 25.6889 10.5797 32.0263 1.8385C33.1189 0.308785 35.3042 0.0902549 36.834 1.18291C37.0525 1.40144 37.271 1.40144 37.271 1.61997C43.8269 10.3612 54.3164 15.1689 65.0244 14.2948C65.8986 14.2948 66.7727 14.5133 67.4283 15.1689C68.3024 16.043 68.5209 16.9171 68.5209 17.7913ZM66.3356 17.7913C66.3356 17.5727 66.1171 17.1357 65.8986 16.9171C65.68 16.6986 65.4615 16.6986 65.0244 16.6986C53.4423 17.5727 42.2972 12.328 35.3042 3.14969C34.8672 2.71263 34.2116 2.49409 33.7745 2.93116L33.556 3.14969C26.563 12.5465 15.4179 17.5727 3.8358 16.6986C3.61727 16.6986 3.18021 16.6986 2.96168 16.9171C2.74314 17.1357 2.52461 17.3542 2.74314 17.7913C2.96167 24.3472 3.8358 40.9555 6.89523 49.4782C10.1732 58.6565 18.9144 65.868 33.9931 72.2054C34.2116 72.424 34.6486 72.424 34.8672 72.2054C50.1643 65.868 58.687 58.6565 61.965 49.4782C65.243 40.9555 66.1171 24.5657 66.3356 17.7913ZM51.4755 38.7702C51.4755 43.3594 49.5087 47.9485 46.2308 51.0079C39.6749 57.1268 29.6224 57.1268 23.0665 51.0079C16.2921 44.6705 15.855 33.9625 22.4109 27.1881C28.9668 20.4136 39.4563 19.9766 46.2308 26.5325C49.7273 29.8104 51.4755 34.1811 51.4755 38.7702ZM34.6486 53.6303C38.1451 53.6303 41.4231 52.5377 44.0455 50.3523L42.2972 47.0744C41.4231 45.3261 39.4563 44.2335 37.4895 44.2335H31.8077C29.841 44.2335 27.8742 45.3261 27.0001 47.0744L25.2518 50.3523C27.8742 52.5377 31.1522 53.6303 34.6486 53.6303ZM49.2902 38.7702C49.2902 30.6846 42.7343 23.9101 34.6486 23.9101C26.563 23.9101 19.7886 30.466 19.7886 38.5517C19.7886 42.2667 21.0997 45.7632 23.5036 48.3856L24.8148 45.7632C26.1259 43.1408 28.7483 41.6111 31.5892 41.6111H37.271C40.1119 41.6111 42.7343 43.1408 44.0455 45.7632L45.3567 48.3856C47.979 45.9817 49.2902 42.4852 49.2902 38.7702ZM40.1119 33.3069C40.1119 36.3664 37.7081 38.7702 34.6486 38.7702C31.5892 38.7702 29.1854 36.3664 29.1854 33.3069C29.1854 30.2475 31.5892 27.8437 34.6486 27.8437C37.7081 27.8437 40.1119 30.2475 40.1119 33.3069ZM37.9266 33.3069C37.9266 31.5587 36.3969 30.029 34.6486 30.029C32.9004 30.029 31.3707 31.5587 31.3707 33.3069C31.3707 35.0552 32.9004 36.5849 34.6486 36.5849C36.3969 36.5849 37.9266 35.2737 37.9266 33.3069Z" fill="black"/>
</svg>
