<svg width="75" height="75" viewBox="0 0 75 75" fill="none" xmlns="http://www.w3.org/2000/svg">
<g clip-path="url(#clip0_3890_36063)">
<path d="M1.91734 74.01C1.68678 74.0372 1.45414 73.9816 1.26073 73.8532C1.15142 73.6779 1.10638 73.47 1.13331 73.2651C1.13331 72.677 1.13331 72.089 1.13331 71.5205C1.07973 70.0571 1.1782 68.5921 1.42727 67.1491C1.84864 65.261 2.90451 63.5744 4.41876 62.3705C5.93301 61.1666 7.81413 60.5181 9.74859 60.5332H9.85639C10.6092 60.564 11.3592 60.6459 12.1009 60.7782C12.5616 60.8566 13.081 60.9351 13.5319 60.9841H13.7182C14.1314 60.9906 14.5338 60.8518 14.8552 60.592C16.5999 58.927 18.9221 58.003 21.3338 58.0142C22.3933 58.0251 23.4471 58.17 24.4702 58.4455C24.617 58.4862 24.7688 58.506 24.9211 58.5043C25.2992 58.5101 25.6683 58.3894 25.9698 58.1613C27.7168 56.4852 30.0374 55.5387 32.4583 55.5149C34.0436 55.5335 35.6093 55.8667 37.0649 56.495L38.1039 56.9165L38.3391 56.2108C39.8681 51.5552 43.7592 49.6047 47.7287 48.2031C50.411 47.3102 53.2138 46.831 56.0404 46.7819C57.4304 46.7349 58.8109 46.5344 60.1569 46.1841C61.6128 45.9049 62.9281 45.1326 63.8814 43.9972C64.8347 42.8619 65.3677 41.4327 65.3907 39.9504C65.528 37.7843 65.5476 35.5888 65.5574 33.4521C65.5574 32.4589 65.5574 31.4788 65.5574 30.5117V30.3843C65.552 30.0266 65.5782 29.6691 65.6358 29.316C65.769 28.537 66.1137 27.8097 66.6323 27.2134C67.1508 26.617 67.8233 26.1747 68.5762 25.9345L69.0957 25.7385L68.7625 23.4254L43.3476 28.2476L43.6318 29.9629C43.7593 30.7372 43.8965 31.5017 44.0141 32.276C44.1317 33.0503 44.014 33.1483 43.3378 33.2561L29.2827 35.5496L21.5985 36.8042L14.4631 37.9803C14.3458 37.9927 14.2275 37.9927 14.1103 37.9803C14.0073 37.9919 13.9031 37.9731 13.8108 37.926C13.7184 37.879 13.6419 37.8058 13.5908 37.7157C13.4731 37.5393 13.4143 37.3531 13.7769 36.863L19.9322 28.4633L21.4809 26.3658C21.5789 26.2188 21.6867 26.0717 21.8043 25.9149L22.3727 25.1014L20.8536 24.0429L18.7364 22.5923L17.2859 21.6121L10.3661 16.8683C9.7584 16.4566 9.67997 16.3096 9.73878 16.045C9.79759 15.7804 9.9054 15.6333 10.7189 15.5059L29.1847 12.4479L33.1052 11.801L33.3699 11.7422L34.1637 11.5658L33.8599 9.66432C33.7031 8.68419 33.556 7.76286 33.3894 6.81213C33.3049 6.55759 33.3049 6.28258 33.3894 6.02804C33.5911 5.85365 33.8481 5.75642 34.1147 5.7536L53.6095 2.81321L59.1375 1.96047L61.0978 1.66644C62.5483 1.44101 64.0382 1.21559 65.4398 1.00977H65.7044C65.9593 1.00977 66.2239 1.00974 66.3317 1.71543L66.6748 3.77372C67.8117 10.7327 68.9454 17.6851 70.0758 24.6309C70.1131 24.9759 70.2523 25.3018 70.4758 25.5672C70.6992 25.8326 70.9968 26.0253 71.3304 26.1208C72.1275 26.407 72.8178 26.9306 73.3085 27.621C73.7991 28.3114 74.0665 29.1355 74.0747 29.9825C74.0747 34.6969 74.0747 38.6567 74.0747 42.7242C73.9705 44.6369 73.2868 46.4726 72.1144 47.9875C70.8603 49.7924 69.2976 51.3618 67.498 52.6235C67.227 52.8002 67.008 53.0459 66.8633 53.3353C66.7186 53.6247 66.6535 53.9473 66.6748 54.2702C66.6748 56.5245 66.6748 58.818 66.6748 61.0331V62.0132C66.6748 62.7679 66.5767 62.8659 65.7926 62.9345C62.7503 63.1984 59.7553 63.8573 56.8833 64.8948C54.8152 65.6103 52.7373 66.4336 50.7378 67.2275L47.7974 68.3645C47.4985 68.4729 47.2421 68.674 47.0658 68.9386C46.8894 69.2031 46.8024 69.5171 46.8173 69.8347C46.8109 70.3958 46.6935 70.9501 46.472 71.4657C46.2504 71.9813 45.9291 72.448 45.5264 72.8388C45.1237 73.2296 44.6477 73.537 44.1257 73.743C43.6038 73.9491 43.0461 74.0498 42.485 74.0394H1.88803L1.91734 74.01ZM10.1603 61.6015C8.92074 61.5788 7.69346 61.8504 6.57919 62.3939C5.46492 62.9374 4.49538 63.7374 3.75018 64.7282C2.07416 66.9237 2.16245 69.374 2.24086 71.7557V72.8829H12.1598V72.2458C12.2284 71.2657 12.2186 70.2855 12.1598 69.3054C12.1598 67.0707 12.0911 64.9536 13.0713 62.9835L13.3359 62.4445L12.836 62.1112H12.7773C12.6583 62.0109 12.5172 61.9403 12.3656 61.9054C11.6441 61.7222 10.9044 61.6202 10.1603 61.6015V61.6015ZM32.3897 56.6323C31.3393 56.6237 30.2979 56.8278 29.3285 57.2325C28.3591 57.6371 27.4817 58.2337 26.7491 58.9865C26.0164 59.7393 25.4437 60.6326 25.0656 61.6127C24.6874 62.5927 24.5116 63.6392 24.5487 64.689C24.5487 66.6884 24.5487 68.6912 24.5487 70.6972V71.5009C24.5487 71.6675 24.5487 71.8341 24.5487 72.0105C24.5487 72.187 24.5487 72.1576 24.5487 72.2262V72.8829H39.4368L38.8488 71.8439C38.3039 70.711 38.0931 69.4462 38.2411 68.1978C38.2411 67.9234 38.2411 67.649 38.2411 67.3745C38.2411 64.5321 38.2411 62.1504 38.2411 59.7197C38.2846 59.3676 38.2126 59.0109 38.0358 58.7033C37.859 58.3957 37.5871 58.1539 37.261 58.0142L36.3788 57.6418C35.564 57.2476 34.7053 56.9515 33.8207 56.7597C33.3475 56.6823 32.8692 56.6397 32.3897 56.6323ZM13.8358 72.8731H23.2647L23.3235 72.2556C23.4375 70.8177 23.4636 69.3742 23.4019 67.9332C23.3333 65.326 23.2647 62.8561 24.284 60.494L24.48 60.0333L24.1076 59.7001C24.0018 59.5751 23.8622 59.4833 23.7057 59.4354C22.9387 59.2283 22.1479 59.1228 21.3534 59.1218C19.4997 59.0154 17.6723 59.5997 16.2241 60.7618C14.776 61.9239 13.8099 63.5815 13.5124 65.4143C13.3057 66.957 13.24 68.5153 13.3163 70.0699C13.3163 70.7364 13.3163 71.4127 13.3163 72.0792C13.3115 72.1968 13.3358 72.3138 13.3871 72.4199C13.4384 72.5259 13.5151 72.6176 13.6104 72.6868L13.8358 72.8731ZM69.8013 26.8853C68.9547 26.9033 68.1496 27.2556 67.5619 27.8653C66.9743 28.475 66.6518 29.2926 66.665 30.1393C66.665 31.188 66.665 32.2466 66.665 33.3051C66.665 35.5398 66.6649 37.8431 66.5081 40.0876C66.4974 41.4838 66.0801 42.8466 65.3072 44.0093C64.5344 45.1721 63.4395 46.0845 62.1564 46.6349C60.7222 47.2307 59.2108 47.6201 57.6673 47.7915C56.9028 47.8797 56.1187 47.9483 55.364 48.0071C53.3099 48.1227 51.2735 48.4512 49.2872 48.9872C46.3346 49.7242 43.6125 51.1863 41.3677 53.241C40.7191 53.8547 40.2088 54.5996 39.8708 55.4261C39.5328 56.2525 39.3748 57.1416 39.4074 58.0339C39.4074 60.6116 39.4074 63.2384 39.4074 65.7769V69.3544C39.3974 69.6826 39.4204 70.0109 39.4761 70.3345C39.6279 71.0484 40.0224 71.6876 40.5925 72.1433C41.1626 72.599 41.8729 72.843 42.6027 72.8339H42.9066C43.688 72.7578 44.4126 72.3915 44.937 71.8071C45.4615 71.2228 45.7477 70.463 45.7392 69.6778C45.7392 66.94 45.7392 64.2054 45.7392 61.4741V58.1613H46.8662V67.6196L47.8463 67.1491C53.2719 64.5505 59.0465 62.7544 64.9888 61.8172L65.577 61.7192V58.9552C65.577 57.1419 65.577 55.2601 65.577 53.4174C65.5496 53.1768 65.5946 52.9336 65.7064 52.7188C65.8181 52.504 65.9916 52.3275 66.2043 52.2119C68.0089 51.035 69.5942 49.5524 70.8893 47.8307C72.0868 46.4576 72.8238 44.7437 72.9966 42.93C73.075 38.637 73.0456 34.2656 72.9966 30.0511C73.003 29.4272 72.8108 28.8175 72.4479 28.31C72.0849 27.8026 71.57 27.4238 70.9776 27.2283C70.6246 27.0408 70.2383 26.9242 69.8406 26.8853H69.8013ZM11.8755 16.486L13.1987 17.4662L13.5124 17.7014L13.973 18.0347L17.3251 20.3282L23.2059 24.3859C23.6764 24.7093 23.7646 24.8858 23.7842 24.9642C23.8038 25.0426 23.7842 25.2484 23.4215 25.7189L19.501 31.1096L16.8546 34.7165L16.541 35.1772L16.345 35.4614L15.453 36.7944L42.8967 32.2564L42.24 28.5319L38.0157 29.3356C37.8736 29.3643 37.7293 29.3806 37.5844 29.3846V29.3846C37.3197 29.3846 37.0845 29.3846 36.9571 28.6299C36.565 26.3168 36.1796 23.9971 35.8006 21.6709L35.2811 18.5541C35.1047 17.4564 34.301 12.7811 34.301 12.7811L11.8755 16.486ZM34.5067 6.88075L38.045 28.179L68.6252 22.3668L65.3124 2.1761L34.5067 6.88075Z" fill="black" stroke="black" stroke-miterlimit="10"/>
<path d="M55.002 43.0182C53.2179 43.0156 51.5077 42.305 50.2471 41.0425C48.9864 39.78 48.2783 38.0688 48.2783 36.2847C48.2835 34.5012 48.9928 32.792 50.2521 31.529C51.5114 30.2661 53.2186 29.5517 55.002 29.5414C55.8907 29.5362 56.7716 29.7067 57.5941 30.0431C58.4166 30.3795 59.1646 30.8752 59.7949 31.5016C60.4179 32.1263 60.9117 32.8677 61.2481 33.6834C61.5844 34.499 61.7568 35.373 61.7551 36.2553C61.7475 38.0424 61.0368 39.7547 59.7768 41.0221C58.5168 42.2894 56.8087 43.01 55.0216 43.028L55.002 43.0182ZM55.002 30.6195C53.518 30.6166 52.0921 31.1962 51.0309 32.2336C49.9697 33.271 49.3578 34.6834 49.327 36.1671C49.306 37.6663 49.8803 39.1126 50.9238 40.1892C51.9673 41.2658 53.3951 41.8848 54.8942 41.9106H54.9726C56.4457 41.9086 57.8598 41.3318 58.9142 40.3031C59.9685 39.2744 60.5799 37.8749 60.6182 36.4023C60.635 35.6522 60.5024 34.9063 60.2281 34.208C59.9538 33.5097 59.5433 32.8729 59.0205 32.3348C58.5145 31.8018 57.9069 31.3754 57.2336 31.0808C56.5603 30.7863 55.8349 30.6294 55.1 30.6195H55.002Z" fill="black" stroke="black" stroke-miterlimit="10"/>
<path d="M10.3564 56.6517C9.2221 56.6491 8.13527 56.1967 7.33414 55.3937C6.533 54.5908 6.083 53.5028 6.08301 52.3685C6.0882 51.2369 6.54205 50.1534 7.34502 49.356C8.148 48.5585 9.2345 48.1121 10.3662 48.1148C11.492 48.1225 12.5695 48.5731 13.3656 49.3691C14.1616 50.1652 14.6123 51.2427 14.62 52.3685C14.6216 52.9312 14.5115 53.4887 14.2962 54.0085C14.0808 54.5284 13.7645 55.0004 13.3654 55.3971C12.973 55.7965 12.5045 56.1132 11.9877 56.3287C11.471 56.5441 10.9163 56.654 10.3564 56.6517V56.6517ZM10.3564 49.2223C9.53019 49.2246 8.73775 49.5499 8.14808 50.1286C7.55841 50.7073 7.21827 51.4935 7.20037 52.3195C7.18951 52.7421 7.26478 53.1624 7.42148 53.555C7.57818 53.9476 7.81309 54.3043 8.11195 54.6032C8.40303 54.9091 8.75248 55.1534 9.1397 55.3218C9.52692 55.4901 9.94397 55.5791 10.3662 55.5834C11.2016 55.5782 12.0014 55.2441 12.5922 54.6533C13.1829 54.0625 13.5172 53.2628 13.5223 52.4273C13.5224 51.5952 13.1959 50.7962 12.613 50.2024C12.0301 49.6085 11.2374 49.2671 10.4054 49.2517L10.3564 49.2223Z" fill="black" stroke="black" stroke-miterlimit="10"/>
<path d="M32.6649 51.6922C31.5357 51.6871 30.4543 51.2362 29.6558 50.4378C28.8574 49.6393 28.4065 48.5578 28.4014 47.4286C28.4013 46.3054 28.8434 45.2273 29.6322 44.4275C30.4209 43.6278 31.4928 43.1707 32.616 43.1553C33.7443 43.1526 34.8278 43.5963 35.6302 44.3896C36.4326 45.1828 36.8888 46.2612 36.8992 47.3894C36.903 47.9506 36.7963 48.5071 36.5851 49.027C36.3739 49.547 36.0623 50.0203 35.6683 50.4198C35.2742 50.8194 34.8053 51.1374 34.2883 51.3557C33.7713 51.574 33.2163 51.6884 32.6551 51.6922H32.6649ZM32.6649 44.2628C31.8328 44.2653 31.0349 44.5943 30.4429 45.179C29.8508 45.7637 29.5119 46.5574 29.4991 47.3894C29.4962 48.2235 29.8196 49.0256 30.4002 49.6245C30.9807 50.2234 31.7724 50.5715 32.6062 50.5945V50.5945C33.4319 50.5899 34.2236 50.2658 34.8157 49.6903C35.4077 49.1147 35.7539 48.3323 35.7818 47.507C35.7911 47.0855 35.7161 46.6664 35.5613 46.2742C35.4064 45.8821 35.1748 45.5248 34.88 45.2234C34.5896 44.9166 34.2403 44.6717 33.8529 44.5032C33.4655 44.3348 33.0482 44.2464 32.6258 44.2432L32.6649 44.2628Z" fill="black" stroke="black" stroke-miterlimit="10"/>
<path d="M21.5106 54.172C20.3799 54.172 19.2954 53.7228 18.4958 52.9232C17.6962 52.1236 17.2471 51.0392 17.2471 49.9084C17.2444 48.7844 17.6857 47.7048 18.475 46.9045C19.2643 46.1042 20.3377 45.6479 21.4617 45.635V45.635C22.5909 45.6324 23.6755 46.0757 24.4795 46.8687C25.2835 47.6616 25.7418 48.74 25.7547 49.8692C25.7599 51.0035 25.3149 52.0935 24.5174 52.9001C23.72 53.7068 22.6351 54.1642 21.5008 54.172H21.5106ZM21.5106 46.7425C20.6784 46.7475 19.8809 47.0769 19.2879 47.6609C18.6948 48.2448 18.3529 49.0371 18.335 49.8692C18.3346 50.7025 18.6588 51.5032 19.2388 52.1015C19.8188 52.6998 20.6092 53.0487 21.4421 53.0742C22.2685 53.0721 23.0618 52.7488 23.6543 52.1727C24.2469 51.5966 24.5923 50.8128 24.6177 49.9868C24.6293 49.565 24.5554 49.1452 24.4004 48.7527C24.2455 48.3603 24.0126 48.0032 23.7159 47.7031C23.4262 47.3954 23.077 47.1499 22.6895 46.9814C22.302 46.8129 21.8843 46.725 21.4617 46.723L21.5106 46.7425Z" fill="black" stroke="black" stroke-miterlimit="10"/>
</g>
<defs>
<clipPath id="clip0_3890_36063">
<rect width="74.0098" height="74" fill="white" transform="translate(0.643555 0.5)"/>
</clipPath>
</defs>
</svg>
