<svg width="75" height="75" viewBox="0 0 75 75" fill="none" xmlns="http://www.w3.org/2000/svg">
<g clip-path="url(#clip0_3890_36069)">
<path d="M19.2536 37.1613C19.7051 36.7097 19.7051 35.9777 19.2535 35.5261C18.802 35.0746 18.0699 35.0746 17.6184 35.5261C17.1668 35.9777 17.1668 36.7098 17.6184 37.1613C18.0699 37.6129 18.802 37.6129 19.2536 37.1613Z" fill="black"/>
<path d="M57.7067 36.318C58.1582 35.8665 58.1582 35.1344 57.7067 34.6829C57.2551 34.2313 56.523 34.2313 56.0715 34.6829C55.6199 35.1344 55.62 35.8665 56.0715 36.3181C56.5231 36.7696 57.2552 36.7696 57.7067 36.318Z" fill="black"/>
<path d="M1.26822 25.7155C1.05146 25.9324 0.929688 26.2264 0.929688 26.533C0.929688 26.8396 1.05146 27.1337 1.26822 27.3505L3.71947 29.8017L17.6176 43.6999C17.7247 43.8081 17.8522 43.894 17.9927 43.9527C18.1332 44.0113 18.284 44.0415 18.4362 44.0415C18.5885 44.0415 18.7392 44.0113 18.8797 43.9527C19.0203 43.894 19.1478 43.8081 19.2548 43.6999L20.0735 42.8812L21.8495 44.6572C21.5409 45.305 21.4404 46.0324 21.5617 46.7396C21.683 47.4468 22.0202 48.0991 22.527 48.607L21.7084 49.4256C21.0587 50.0764 20.6938 50.9584 20.6938 51.878C20.6938 52.7976 21.0587 53.6796 21.7084 54.3304C22.3235 54.9455 23.1352 55.2901 24.0001 55.3317C24.044 56.1573 24.3493 56.9713 24.9783 57.6003C25.6119 58.2339 26.4352 58.5415 27.2653 58.5831C27.3047 59.4133 27.6145 60.2365 28.2482 60.8702C28.8656 61.4876 29.675 61.8322 30.5399 61.8715C30.5838 62.697 30.889 63.511 31.518 64.14C32.1933 64.8176 33.0836 65.1529 33.9716 65.1529C34.8596 65.1529 35.7476 64.8153 36.4252 64.14L37.2438 63.3214C37.8982 63.9759 38.77 64.3366 39.6973 64.3366C40.1531 64.3381 40.6047 64.2491 41.0258 64.0748C41.447 63.9006 41.8294 63.6445 42.1509 63.3214C42.7845 62.6878 43.0944 61.8645 43.1337 61.0344C43.9662 60.995 44.7895 60.6852 45.4231 60.0515C46.0498 59.4225 46.355 58.6062 46.399 57.783C47.2639 57.7437 48.0755 57.3991 48.6907 56.7817C49.3243 56.148 49.6342 55.3248 49.6735 54.4946C50.5322 54.4657 51.3486 54.1149 51.9605 53.5118C52.6103 52.861 52.9752 51.979 52.9752 51.0594C52.9752 50.1398 52.6103 49.2578 51.9605 48.607L52.7792 47.7884C53.8452 46.7223 54.0718 45.129 53.4567 43.8386L55.2327 42.0626L56.0514 42.8812C56.1584 42.9895 56.2859 43.0754 56.4265 43.134C56.567 43.1927 56.7177 43.2229 56.87 43.2229C57.0222 43.2229 57.173 43.1927 57.3135 43.134C57.454 43.0754 57.5815 42.9895 57.6886 42.8812L71.5867 28.9831L71.5914 28.9762L74.0403 26.5272C74.2509 26.3092 74.3675 26.0171 74.3648 25.7139C74.3622 25.4108 74.2406 25.1208 74.0262 24.9064C73.8118 24.692 73.5218 24.5704 73.2187 24.5678C72.9155 24.5651 72.6234 24.6817 72.4054 24.8923L63.412 33.8879L50.3233 20.8084L56.863 14.2687L59.3143 11.8174C59.5249 11.5993 59.6415 11.3073 59.6388 11.0041C59.6362 10.7009 59.5146 10.4109 59.3002 10.1966C59.0858 9.98219 58.7958 9.86059 58.4927 9.85795C58.1895 9.85532 57.8974 9.97186 57.6793 10.1825L47.8674 19.9921L47.8651 19.9944L41.3254 26.5342C41.2177 26.6416 41.1322 26.7692 41.074 26.9096C41.0157 27.0501 40.9857 27.2007 40.9857 27.3528C40.9857 27.5049 41.0157 27.6555 41.074 27.7959C41.1322 27.9364 41.2177 28.064 41.3254 28.1714L42.9603 29.8064L41.737 31.0297L38.03 30.4885C37.8517 30.4662 37.6707 30.4841 37.5002 30.5409C37.3297 30.5977 37.1741 30.6921 37.0449 30.8169L35.6019 32.2599L33.1484 29.8087L33.967 28.99C34.0747 28.8826 34.1601 28.755 34.2184 28.6146C34.2767 28.4741 34.3067 28.3235 34.3067 28.1714C34.3067 28.0193 34.2767 27.8687 34.2184 27.7283C34.1601 27.5878 34.0747 27.4602 33.967 27.3528L27.4272 20.813L27.4249 20.8107L17.6199 10.9988C17.4018 10.7882 17.1098 10.6716 16.8066 10.6743C16.5034 10.6769 16.2134 10.7985 15.9991 11.0129C15.7847 11.2273 15.6631 11.5173 15.6604 11.8204C15.6578 12.1236 15.7744 12.4157 15.985 12.6337L18.4362 15.085L24.976 21.6247L11.8965 34.7065L2.90316 25.7132C2.68573 25.4973 2.39162 25.3764 2.08521 25.3768C1.7788 25.3772 1.48504 25.499 1.26822 25.7155V25.7155ZM24.9783 52.6955C24.7586 52.9067 24.4656 53.0248 24.1608 53.0248C23.856 53.0248 23.5631 52.9067 23.3433 52.6955C23.2357 52.5881 23.1502 52.4605 23.092 52.32C23.0337 52.1795 23.0037 52.0289 23.0037 51.8769C23.0037 51.7248 23.0337 51.5742 23.092 51.4337C23.1502 51.2932 23.2357 51.1656 23.3433 51.0582L24.162 50.2396L25.7969 51.8745L24.9783 52.6955V52.6955ZM28.2482 55.9654C28.0279 56.1756 27.7352 56.2928 27.4307 56.2928C27.1262 56.2928 26.8335 56.1756 26.6132 55.9654C26.5055 55.8579 26.4201 55.7304 26.3618 55.5899C26.3035 55.4494 26.2735 55.2988 26.2735 55.1467C26.2735 54.9946 26.3035 54.8441 26.3618 54.7036C26.4201 54.5631 26.5055 54.4355 26.6132 54.3281L27.4319 53.5095L29.0668 55.1444L28.2482 55.9654V55.9654ZM31.518 59.2352C31.2978 59.4454 31.005 59.5627 30.7006 59.5627C30.3961 59.5627 30.1033 59.4454 29.8831 59.2352C29.6663 59.0184 29.5446 58.7244 29.5446 58.4178C29.5446 58.1112 29.6663 57.8171 29.8831 57.6003L30.7017 56.7817L32.3367 58.4166L31.518 59.2352ZM34.7902 62.5051C34.5722 62.7157 34.2801 62.8323 33.9769 62.8296C33.6738 62.827 33.3838 62.7054 33.1694 62.491C32.955 62.2766 32.8334 61.9866 32.8308 61.6835C32.8281 61.3803 32.9447 61.0882 33.1553 60.8702L33.9739 60.0515L35.6089 61.6865L34.7902 62.5051ZM48.6884 22.4457L61.7702 35.5275L56.8654 40.4323L56.049 39.616L44.6022 28.1714L44.5998 28.1691L43.7835 27.3528L48.6884 22.4457V22.4457ZM38.2752 32.8589L41.9798 33.4C42.1582 33.4255 42.3401 33.4091 42.5111 33.3521C42.6821 33.2951 42.8375 33.1991 42.9649 33.0716L44.5998 31.4367L53.5932 40.43L51.1396 42.8812C51.0319 42.9886 50.9465 43.1162 50.8882 43.2567C50.8299 43.3972 50.7999 43.5478 50.7999 43.6999C50.7999 43.8519 50.8299 44.0025 50.8882 44.143C50.9465 44.2835 51.0319 44.4111 51.1396 44.5185C51.3559 44.736 51.4774 45.0303 51.4774 45.3371C51.4774 45.6439 51.3559 45.9382 51.1396 46.1557L50.3233 46.972L40.4998 37.1462C40.7065 36.9227 40.8159 36.6262 40.804 36.322C40.792 36.0177 40.6597 35.7307 40.4362 35.524C40.2126 35.3173 39.9161 35.2079 39.6119 35.2198C39.3077 35.2318 39.0207 35.3641 38.814 35.5876L34.3485 40.053C33.8736 40.5107 33.2574 40.7936 32.6008 40.8554C31.9442 40.9171 31.286 40.7541 30.7341 40.393L38.2752 32.8589V32.8589ZM33.9716 33.8902L28.2482 39.6137C28.1405 39.7211 28.0551 39.8487 27.9968 39.9891C27.9385 40.1296 27.9085 40.2802 27.9085 40.4323C27.9085 40.5844 27.9385 40.735 27.9968 40.8754C28.0551 41.0159 28.1405 41.1435 28.2482 41.2509L28.6875 41.6903C29.6611 42.6639 30.9561 43.2004 32.3344 43.2004C33.0122 43.202 33.6836 43.0694 34.3099 42.8103C34.9362 42.5511 35.505 42.1704 35.9835 41.6903L38.8764 38.7974L49.5047 49.4279L50.321 50.2442C50.5316 50.4623 50.6481 50.7544 50.6455 51.0575C50.6429 51.3607 50.5213 51.6507 50.3069 51.8651C50.0925 52.0795 49.8025 52.2011 49.4993 52.2037C49.1962 52.2063 48.9041 52.0898 48.686 51.8792L45.4162 48.6093C45.1981 48.3987 44.906 48.2821 44.6029 48.2848C44.2997 48.2874 44.0097 48.409 43.7953 48.6234C43.5809 48.8378 43.4593 49.1278 43.4567 49.4309C43.4541 49.7341 43.5706 50.0262 43.7812 50.2442L47.0511 53.5141C47.2679 53.7309 47.3896 54.025 47.3896 54.3316C47.3896 54.6382 47.2679 54.9322 47.0511 55.149C46.8314 55.3603 46.5384 55.4783 46.2336 55.4783C45.9288 55.4783 45.6359 55.3603 45.4162 55.149L42.144 51.8792C41.9259 51.6685 41.6338 51.552 41.3307 51.5546C41.0275 51.5573 40.7375 51.6789 40.5231 51.8933C40.3087 52.1076 40.1871 52.3976 40.1845 52.7008C40.1819 53.004 40.2984 53.296 40.509 53.5141L43.7789 56.784C43.9957 57.0011 44.1174 57.2954 44.1172 57.6023C44.117 57.9091 43.9949 58.2033 43.7778 58.4201C43.5606 58.6369 43.2663 58.7586 42.9595 58.7583C42.6526 58.7581 42.3585 58.636 42.1417 58.4189L38.8718 55.149C38.6537 54.9384 38.3616 54.8219 38.0585 54.8245C37.7553 54.8271 37.4653 54.9487 37.2509 55.1631C37.0366 55.3775 36.915 55.6675 36.9123 55.9707C36.9097 56.2738 37.0262 56.5659 37.2369 56.784L40.5067 60.0539C40.7235 60.2707 40.8453 60.5647 40.8453 60.8713C40.8453 61.1779 40.7235 61.472 40.5067 61.6888C40.2865 61.899 39.9937 62.0163 39.6893 62.0163C39.3848 62.0163 39.092 61.899 38.8718 61.6888L38.0555 60.8725L34.7856 57.6026L24.1573 46.9767C23.941 46.7591 23.8196 46.4648 23.8196 46.158C23.8196 45.8513 23.941 45.5569 24.1573 45.3394C24.265 45.232 24.3505 45.1044 24.4087 44.9639C24.467 44.8235 24.497 44.6729 24.497 44.5208C24.497 44.3687 24.467 44.2181 24.4087 44.0776C24.3505 43.9372 24.265 43.8096 24.1573 43.7022L21.7038 41.2509L31.5157 31.4413L33.9716 33.8902V33.8902ZM31.5204 28.1691L30.704 28.9854L30.7017 28.9877L19.2548 40.4323L18.4385 41.2486L13.5314 36.3438L26.6132 23.262L31.5204 28.1691V28.1691Z" fill="black"/>
</g>
<defs>
<clipPath id="clip0_3890_36069">
<rect width="74" height="74" fill="white" transform="translate(0.650391 0.5)"/>
</clipPath>
</defs>
</svg>
